<svg id="Ebene_1" data-name="Ebene 1" xmlns="http://www.w3.org/2000/svg" viewBox="0 0 51.74 11.76">
  <defs>
    <style>
      .cls-1 {
        fill: #fff;
        fill-rule: evenodd;
      }
    </style>
  </defs>
  <title>cbcc75a5-b9df-494d-b5c2-67b5bf57c35b</title>
  <polygon class="cls-1" points="6.02 0 10.83 2.34 12 7.58 8.66 11.76 3.32 11.74 0 7.54 2.28 7.02 4.34 9.63 7.65 9.64 9.72 7.05 8.99 3.8 6.02 2.35 6.02 0"/>
  <polygon class="cls-1" points="1.54 1.22 7.02 5.28 5.5 7.36 0.03 3.29 1.54 1.22"/>
  <g>
    <polygon class="cls-1" points="16.09 7.45 15.13 7.45 15.13 6.46 16.02 6.46 16.02 5.97 15.13 5.97 15.13 5.47 16.09 5.47 16.09 4.98 14.37 4.98 14.37 7.95 16.09 7.95 16.09 7.45"/>
    <path class="cls-1" d="M18.2,4.98V6.81a.875.875,0,0,1-.1.49.353.353,0,0,1-.33.15.368.368,0,0,1-.32-.15.774.774,0,0,1-.11-.48V4.98h-.77V6.76a1.167,1.167,0,0,0,.31.88,1.152,1.152,0,0,0,.88.31,1.18,1.18,0,0,0,.89-.32,1.2,1.2,0,0,0,.32-.89V4.98Z"/>
    <path class="cls-1" d="M20.33,5.47h.16c.27,0,.41.15.41.45q0,.54-.42.54h-.15Zm.2,1.49.63.99h.87L21.2,6.73a.933.933,0,0,0,.48-.83c0-.61-.39-.92-1.18-.92h-.94V7.95h.77V6.96Z"/>
    <path class="cls-1" d="M23.59,5.47a.491.491,0,0,1,.44.24,1.521,1.521,0,0,1,.15.76,1.536,1.536,0,0,1-.14.74.5.5,0,0,1-.45.24c-.41,0-.6-.33-.6-.98C22.99,5.8,23.19,5.47,23.59,5.47Zm1.04-.11a1.331,1.331,0,0,0-1.04-.38,1.354,1.354,0,0,0-1.05.38,1.534,1.534,0,0,0-.36,1.1,1.561,1.561,0,0,0,.36,1.11,1.627,1.627,0,0,0,2.09,0,1.544,1.544,0,0,0,.36-1.11A1.518,1.518,0,0,0,24.63,5.36Z"/>
    <path class="cls-1" d="M26.26,5.47h.19c.21,0,.31.15.31.44a.735.735,0,0,1-.1.4.292.292,0,0,1-.26.15h-.14Zm1-.25a1.148,1.148,0,0,0-.79-.24H25.5V7.95h.76V6.96h.22a1.047,1.047,0,0,0,.77-.27,1.012,1.012,0,0,0,.28-.77A.912.912,0,0,0,27.26,5.22Z"/>
    <polygon class="cls-1" points="29.71 7.45 28.75 7.45 28.75 6.46 29.64 6.46 29.64 5.97 28.75 5.97 28.75 5.47 29.71 5.47 29.71 4.98 27.99 4.98 27.99 7.95 29.71 7.95 29.71 7.45"/>
    <path class="cls-1" d="M31.07,6.71q.18-.69.24-.93c.04-.15.06-.27.08-.34.01.08.04.2.08.37s.08.31.11.42l.14.48Zm1.8,1.24-.98-2.97H30.87L29.9,7.95h.84l.16-.75h.99l.15.75Z"/>
    <path class="cls-1" d="M35.79,4.98h-.68V6.32q0,.27.03.72h-.01l-.98-2.06h-.98V7.95h.68V6.61c0-.17-.01-.42-.04-.76h.02l.98,2.1h.98Z"/>
    <path class="cls-1" d="M37.95,6.66a1.605,1.605,0,0,0-.63-.35,1.533,1.533,0,0,1-.4-.18.429.429,0,0,1-.25-.42.426.426,0,0,1,.15-.35.607.607,0,0,1,.42-.14,1.888,1.888,0,0,1,.71.15l.1-.26a2.259,2.259,0,0,0-.79-.13,1.066,1.066,0,0,0-.67.19.632.632,0,0,0-.25.53.774.774,0,0,0,.17.52,1.366,1.366,0,0,0,.58.34,2.463,2.463,0,0,1,.44.19.506.506,0,0,1,.2.18.427.427,0,0,1,.06.24.451.451,0,0,1-.17.39.816.816,0,0,1-.51.14,1.992,1.992,0,0,1-.42-.04,2.224,2.224,0,0,1-.39-.12v.29a2.08,2.08,0,0,0,.79.12,1.185,1.185,0,0,0,.76-.22.7.7,0,0,0,.28-.59A.665.665,0,0,0,37.95,6.66Z"/>
    <polygon class="cls-1" points="39.6 5.22 40.51 5.22 40.51 4.98 38.35 4.98 38.35 5.22 39.27 5.22 39.27 7.95 39.6 7.95 39.6 5.22"/>
    <path class="cls-1" d="M41.27,5.22h.43a.792.792,0,0,1,.54.15.561.561,0,0,1,.17.46.649.649,0,0,1-.16.47.721.721,0,0,1-.52.16h-.46Zm.61,1.49.68,1.24h.39l-.77-1.32a.8.8,0,0,0,.57-.81.766.766,0,0,0-.25-.63,1.211,1.211,0,0,0-.78-.21h-.78V7.95h.33V6.71Z"/>
    <polygon class="cls-1" points="45.01 7.7 43.75 7.7 43.75 6.46 44.94 6.46 44.94 6.21 43.75 6.21 43.75 5.22 45.01 5.22 45.01 4.98 43.42 4.98 43.42 7.95 45.01 7.95 45.01 7.7"/>
    <polygon class="cls-1" points="47.24 7.7 45.98 7.7 45.98 6.46 47.16 6.46 47.16 6.21 45.98 6.21 45.98 5.22 47.24 5.22 47.24 4.98 45.65 4.98 45.65 7.95 47.24 7.95 47.24 7.7"/>
    <polygon class="cls-1" points="48.76 5.22 49.67 5.22 49.67 4.98 47.52 4.98 47.52 5.22 48.43 5.22 48.43 7.95 48.76 7.95 48.76 5.22"/>
    <path class="cls-1" d="M51.57,6.66a1.686,1.686,0,0,0-.63-.35,1.631,1.631,0,0,1-.41-.18.535.535,0,0,1-.19-.17.583.583,0,0,1-.05-.25.426.426,0,0,1,.15-.35.607.607,0,0,1,.42-.14,1.888,1.888,0,0,1,.71.15l.1-.26a2.277,2.277,0,0,0-.8-.13,1.036,1.036,0,0,0-.66.19.632.632,0,0,0-.25.53.726.726,0,0,0,.17.52,1.366,1.366,0,0,0,.58.34,2.842,2.842,0,0,1,.44.19.506.506,0,0,1,.2.18.427.427,0,0,1,.06.24.478.478,0,0,1-.17.39.816.816,0,0,1-.51.14,2.042,2.042,0,0,1-.81-.16v.29a2.045,2.045,0,0,0,.79.12,1.185,1.185,0,0,0,.76-.22.7.7,0,0,0,.27-.59A.658.658,0,0,0,51.57,6.66Z"/>
  </g>
</svg>
